<?xml version="1.0" standalone="no"?><!DOCTYPE svg PUBLIC "-//W3C//DTD SVG 1.1//EN" "http://www.w3.org/Graphics/SVG/1.1/DTD/svg11.dtd"><svg t="1718625048239" class="icon" viewBox="0 0 1024 1024" version="1.1" xmlns="http://www.w3.org/2000/svg" p-id="1096" xmlns:xlink="http://www.w3.org/1999/xlink" width="200" height="200"><path d="M776.6528 660.1728l70.2976 69.6832c-7.936 7.3728-113.2544 113.8176-159.5904 160.6656-27.0848 27.392-63.4368 32.6144-98.2016 40.96-11.008 2.7136-15.36-5.5296-13.056-15.104 8.96-37.4272 17.1008-74.2912 47.5648-103.1168 52.1728-49.408 102.0928-101.5808 152.9856-153.088z" fill="#2595E8" p-id="1097"></path><path d="M630.8864 89.9584c12.7488 5.12 24.2176 7.2704 31.6928 13.7728 37.632 32.6144 75.1104 65.5872 110.5408 100.5568 9.3696 9.216 11.3664 26.0096 18.3296 43.264-46.848 0-87.04 0.5632-127.4368-0.6144a27.392 27.392 0 0 1-19.4048-12.6976 87.3984 87.3984 0 0 1-13.1072-36.8128c-1.7408-33.9968-0.6144-68.1984-0.6144-107.4688z" fill="#3A9CED" p-id="1098"></path><path d="M879.0528 700.5696l-68.1472-71.68c8.5504-8.6016 25.2928-28.3136 45.312-23.5008 25.6 5.9904 39.5776 24.0128 47.2064 47.36 7.424 22.5792-11.2128 35.6864-24.3712 47.8208zM786.176 321.8944c0-6.0928-0.6656-12.2368-1.0752-19.8656-39.2192 0-77.1072-0.4608-114.9952 0-39.68 0.6144-67.0208-18.5344-81.408-53.76A187.4432 187.4432 0 0 1 577.1264 189.44c-1.8432-31.3856-0.512-62.976-0.512-96.4608-108.9536 0-234.24-0.4096-340.0192 0.512a75.8784 75.8784 0 0 0-37.2224 12.032c-38.6048 24.2176-58.9824 59.0848-58.88 105.8304 0.4096 181.76 1.9456 363.52-0.8192 545.28-0.8704 56.32 54.3232 117.0432 112.384 121.4976h0.3584c3.4304 0.256 189.0304 1.7408 189.0304 1.7408 64.4096 0 88.1152-30.72 93.3888-36.1984 1.6384-1.6896 13.3632-14.336 28.7744-31.0272l89.2928-94.5664a102.0416 102.0416 0 0 1-17.5616 1.1264h-4.6592c-105.1648 0-229.8368 0.256-335.0016 0a48.7936 48.7936 0 0 1-46.5408-30.3104c-16.7424-35.84 9.1136-74.752 50.2784-74.9056 98.2016-0.3584 215.8592 0 314.0608 0 20.1216 0 39.424 0.7168 54.3744 16.64a53.248 53.248 0 0 1 14.848 44.032 51.5584 51.5584 0 0 1-2.816 14.8992l93.4912-98.9696a46.08 46.08 0 0 0 12.288-29.2864c0.9728-80.0256 0.5632-159.5904 0.512-239.4112z m-163.84 189.0816H303.0016c-36.3008 0-58.4192-20.48-58.3168-52.736s22.7328-52.9408 58.5216-53.0432h319.3344c35.84 0 60.672 23.04 60.0064 54.1696s-24.2176 51.5072-60.2112 51.6096z" fill="#2595E8" p-id="1099"></path><path d="M786.176 321.8944c0-6.0928-0.6656-12.2368-1.0752-19.8656-39.2192 0-77.1072-0.4608-114.9952 0-39.68 0.6144-67.0208-18.5344-81.408-53.76A187.4432 187.4432 0 0 1 577.1264 189.44c-1.8432-31.3856-0.512-62.976-0.512-96.4608-108.9536 0-234.24-0.4096-340.0192 0.512a75.8784 75.8784 0 0 0-37.2224 12.032c-38.6048 24.2176-58.9824 59.0848-58.88 105.8304 0.4096 181.76 1.9456 363.52-0.8192 545.28-0.4096 26.4704 11.6224 53.76 30.4128 75.8784a573.9008 573.9008 0 0 0 58.88 2.9696c129.6896 0 268.6976-43.2128 364.5952-115.968H295.68a48.7936 48.7936 0 0 1-46.5408-30.3104c-16.7424-35.84 9.1136-74.752 50.2784-74.9056 98.2016-0.3584 215.8592 0 314.0608 0 20.1216 0 39.424 0.7168 54.3744 16.64a60.928 60.928 0 0 1 8.704 11.9296 570.7776 570.7776 0 0 0 109.7216-184.9856c0.0512-45.5168-0.1024-90.7776-0.1024-135.9872z m-163.84 189.0816H303.0016c-36.3008 0-58.4192-20.48-58.3168-52.736s22.7328-52.9408 58.5216-53.0432h319.3344c35.84 0 60.672 23.04 60.0064 54.1696s-24.2176 51.5072-60.2112 51.6096z" fill="#3A9CED" p-id="1100"></path><path d="M444.4672 511.0784H303.0016c-36.3008 0-58.4192-20.48-58.3168-52.736s22.7328-52.9408 58.5216-53.0432h245.248A569.6 569.6 0 0 0 617.2672 286.72a87.9104 87.9104 0 0 1-28.5696-38.4 187.4432 187.4432 0 0 1-11.5712-58.88c-1.8432-31.3856-0.512-62.976-0.512-96.4608-108.9536 0-234.24-0.4096-340.0192 0.512a75.8784 75.8784 0 0 0-37.2224 12.032c-38.6048 24.2176-58.9824 59.0848-58.88 105.8304 0.3072 139.0592 1.28 278.1184 0.4608 417.1264 106.3936-12.6464 223.3344-54.528 303.5136-117.4016zM630.8864 89.9584c0 39.2704-1.1776 73.472 0.6144 107.52a73.472 73.472 0 0 0 8.192 27.5456 571.4944 571.4944 0 0 0 22.3232-121.7024c-7.5264-6.0416-18.688-8.1408-31.1296-13.3632z" fill="#59ADF8" p-id="1101"></path><path d="M469.8624 92.9792c-71.68 0-162.3552 0-233.2672 0.5632a75.8784 75.8784 0 0 0-37.2224 12.032c-38.6048 24.2176-58.9824 59.0848-58.88 105.8304q0 89.1904 0.5632 178.2784c137.5744-55.04 268.2368-161.9968 328.8064-296.704z" fill="#6BC2FC" p-id="1102"></path></svg>