<?xml version="1.0" standalone="no"?><!DOCTYPE svg PUBLIC "-//W3C//DTD SVG 1.1//EN" "http://www.w3.org/Graphics/SVG/1.1/DTD/svg11.dtd"><svg t="1718624998934" class="icon" viewBox="0 0 1024 1024" version="1.1" xmlns="http://www.w3.org/2000/svg" p-id="936" xmlns:xlink="http://www.w3.org/1999/xlink" width="200" height="200"><path d="M531.2 531.2m-377.6 0a377.6 377.6 0 1 0 755.2 0 377.6 377.6 0 1 0-755.2 0Z" fill="#F0F9FE" p-id="937"></path><path d="M486.4 76.8C260.1856 76.8 76.8 260.1856 76.8 486.4c0 226.2144 183.3856 409.6 409.6 409.6 226.2144 0 409.6-183.3856 409.6-409.6C896 260.1856 712.6144 76.8 486.4 76.8zM25.6 486.4C25.6 231.9104 231.9104 25.6 486.4 25.6s460.8 206.3104 460.8 460.8-206.3104 460.8-460.8 460.8S25.6 740.8896 25.6 486.4z" fill="#3A4453" p-id="938"></path><path d="M537.6 755.2a51.2 51.2 0 0 1-51.2 51.2c-121.2544 0-226.8416-68.6848-276.352-169.4208a51.2 51.2 0 1 1 91.904-45.1584C334.272 657.5744 404.2624 704 486.4 704a51.2 51.2 0 0 1 51.2 51.2z" fill="#4FB5F5" p-id="939"></path><path d="M788.3008 788.3008a25.6 25.6 0 0 1 36.1984 0l134.4 134.4a25.6 25.6 0 1 1-36.1984 36.1984l-134.4-134.4a25.6 25.6 0 0 1 0-36.1984z" fill="#3A4453" p-id="940"></path></svg>