<?xml version="1.0" standalone="no"?><!DOCTYPE svg PUBLIC "-//W3C//DTD SVG 1.1//EN" "http://www.w3.org/Graphics/SVG/1.1/DTD/svg11.dtd"><svg t="1718625053316" class="icon" viewBox="0 0 1024 1024" version="1.1" xmlns="http://www.w3.org/2000/svg" p-id="1258" xmlns:xlink="http://www.w3.org/1999/xlink" width="200" height="200"><path d="M337.92 111.104m22.9376 0l300.9024 0q22.9376 0 22.9376 22.9376l0 99.6864q0 22.9376-22.9376 22.9376l-300.9024 0q-22.9376 0-22.9376-22.9376l0-99.6864q0-22.9376 22.9376-22.9376Z" fill="#8486F8" p-id="1259"></path><path d="M767.488 186.0608h-25.6v77.7216a46.4384 46.4384 0 0 1-46.4384 46.4384h-368.64a46.4384 46.4384 0 0 1-46.4384-46.4384V186.0608h-25.1904a102.4 102.4 0 0 0-102.4 102.4v527.872a102.4 102.4 0 0 0 102.4 102.4H767.488a102.4 102.4 0 0 0 102.4-102.4V288.4608a102.4 102.4 0 0 0-102.4-102.4z m-79.3088 516.608H334.4896a41.216 41.216 0 0 1 0-82.432h353.6896a41.216 41.216 0 1 1 0 82.432z m0-162.048H334.4896a40.96 40.96 0 1 1 0-82.432h353.6896a40.96 40.96 0 1 1 0 82.432z" fill="#6C6CEA" p-id="1260"></path><path d="M869.888 288.4608a102.4 102.4 0 0 0-102.4-102.4h-25.6v77.7216a46.4384 46.4384 0 0 1-46.4384 46.4384h-368.64a46.4384 46.4384 0 0 1-46.4384-46.4384V186.0608h-25.1904a102.4 102.4 0 0 0-102.4 102.4v527.872a102.4 102.4 0 0 0 102.4 102.4h200.9088a604.16 604.16 0 0 0 413.7984-467.6096z m-181.7088 414.208H334.4896a41.216 41.216 0 0 1 0-82.432h353.6896a41.216 41.216 0 1 1 0 82.432z m0-162.048H334.4896a40.96 40.96 0 1 1 0-82.432h353.6896a40.96 40.96 0 1 1 0 82.432z" fill="#757BF2" p-id="1261"></path><path d="M313.6 696.9344a40.96 40.96 0 0 1 20.8896-76.8H460.8a606.8736 606.8736 0 0 0 90.9824-79.616H334.4896a40.96 40.96 0 1 1 0-82.432h282.0096a601.5488 601.5488 0 0 0 70.1952-147.968H326.9632a46.4384 46.4384 0 0 1-46.4384-46.4384V186.0608h-25.344a102.4 102.4 0 0 0-102.4 102.4v441.8048a599.8592 599.8592 0 0 0 160.8192-33.3312z" fill="#8486F8" p-id="1262"></path><path d="M415.2832 310.2208H326.9632a46.4384 46.4384 0 0 1-46.4384-46.4384V186.0608h-25.344a102.4 102.4 0 0 0-102.4 102.4V486.4a604.16 604.16 0 0 0 262.5024-176.1792z" fill="#8D92F8" p-id="1263"></path><path d="M530.176 111.104H368.64a30.72 30.72 0 0 0-30.72 30.72v84.1728a30.72 30.72 0 0 0 30.72 30.72h88.064a601.7024 601.7024 0 0 0 73.472-145.6128z" fill="#8D92F8" p-id="1264"></path></svg>