<?xml version="1.0" standalone="no"?><!DOCTYPE svg PUBLIC "-//W3C//DTD SVG 1.1//EN" "http://www.w3.org/Graphics/SVG/1.1/DTD/svg11.dtd"><svg t="1718625058082" class="icon" viewBox="0 0 1024 1024" version="1.1" xmlns="http://www.w3.org/2000/svg" p-id="1420" xmlns:xlink="http://www.w3.org/1999/xlink" width="200" height="200"><path d="M824.32 284.0576h-50.7904a58.8288 58.8288 0 0 0-58.7264-55.1424H162.56a58.88 58.88 0 0 0-58.9312 58.88v257.5872A212.736 212.736 0 0 0 276.48 754.3296H122.4704a39.4752 39.4752 0 0 0 0 78.8992h658.5344a39.4752 39.4752 0 0 0 0-78.8992h-180.0192a212.8896 212.8896 0 0 0 159.3344-134.2976h9.3696a168.192 168.192 0 0 0 168.0384-167.9872V397.312A113.408 113.408 0 0 0 824.32 284.0576zM266.6496 539.136a39.424 39.424 0 1 1-78.848 0V410.5728a39.424 39.424 0 1 1 78.848 0z m592.1792-87.04a89.1392 89.1392 0 0 1-84.992 88.9344V362.9056H824.32a34.4064 34.4064 0 0 1 34.3552 34.4064z" fill="#05C46D" p-id="1421"></path><path d="M733.44 328.192a524.5952 524.5952 0 0 0-9.4208-98.5088 57.9584 57.9584 0 0 0-9.0624-0.768H162.56a58.88 58.88 0 0 0-58.9312 58.88v257.5872A212.736 212.736 0 0 0 276.48 754.3296H122.4704a39.4752 39.4752 0 0 0 0 78.8992h223.6928a523.0592 523.0592 0 0 0 387.2768-505.0368z m-466.7904 210.944a39.424 39.424 0 1 1-78.848 0V410.5728a39.424 39.424 0 1 1 78.848 0z" fill="#1DCE75" p-id="1422"></path><path d="M583.168 228.9152H162.56a58.88 58.88 0 0 0-58.9312 58.88v257.5872A211.5584 211.5584 0 0 0 137.5744 660.48a523.1104 523.1104 0 0 0 445.5936-431.5648zM266.6496 539.136a39.424 39.424 0 1 1-78.848 0V410.5728a39.424 39.424 0 1 1 78.848 0z" fill="#3CD38E" p-id="1423"></path><path d="M187.8016 415.744v-5.12a39.3728 39.3728 0 0 1 60.16-33.4848A526.2848 526.2848 0 0 0 382.976 228.9152h-220.16a58.88 58.88 0 0 0-58.9312 58.88v164.9152a519.2704 519.2704 0 0 0 83.9168-36.9664z" fill="#48E1AA" p-id="1424"></path></svg>